<svg id="visual" viewBox="0 0 900 600" width="900" height="600" xmlns="http://www.w3.org/2000/svg" xmlns:xlink="http://www.w3.org/1999/xlink" version="1.1"><rect x="0" y="0" width="900" height="600" fill="#313e51"></rect><defs><linearGradient id="grad1_0" x1="33.3%" y1="100%" x2="100%" y2="0%"><stop offset="20%" stop-color="#496791" stop-opacity="1"></stop><stop offset="80%" stop-color="#496791" stop-opacity="1"></stop></linearGradient></defs><defs><linearGradient id="grad1_1" x1="33.3%" y1="100%" x2="100%" y2="0%"><stop offset="20%" stop-color="#496791" stop-opacity="1"></stop><stop offset="80%" stop-color="#3d5270" stop-opacity="1"></stop></linearGradient></defs><defs><linearGradient id="grad1_2" x1="33.3%" y1="100%" x2="100%" y2="0%"><stop offset="20%" stop-color="#313e51" stop-opacity="1"></stop><stop offset="80%" stop-color="#3d5270" stop-opacity="1"></stop></linearGradient></defs><defs><linearGradient id="grad2_0" x1="0%" y1="100%" x2="66.7%" y2="0%"><stop offset="20%" stop-color="#496791" stop-opacity="1"></stop><stop offset="80%" stop-color="#496791" stop-opacity="1"></stop></linearGradient></defs><defs><linearGradient id="grad2_1" x1="0%" y1="100%" x2="66.7%" y2="0%"><stop offset="20%" stop-color="#3d5270" stop-opacity="1"></stop><stop offset="80%" stop-color="#496791" stop-opacity="1"></stop></linearGradient></defs><defs><linearGradient id="grad2_2" x1="0%" y1="100%" x2="66.7%" y2="0%"><stop offset="20%" stop-color="#3d5270" stop-opacity="1"></stop><stop offset="80%" stop-color="#313e51" stop-opacity="1"></stop></linearGradient></defs><g transform="translate(900, 600)"><path d="M-378.6 0C-355.9 -41.8 -333.2 -83.6 -318.7 -132C-304.3 -180.4 -298 -235.4 -267.7 -267.7C-237.4 -300 -183 -309.6 -134.3 -324.3C-85.7 -339 -42.8 -358.8 0 -378.6L0 0Z" fill="#374860"></path><path d="M-252.4 0C-237.3 -27.9 -222.1 -55.8 -212.5 -88C-202.8 -120.3 -198.7 -156.9 -178.5 -178.5C-158.2 -200 -122 -206.4 -89.5 -216.2C-57.1 -226 -28.6 -239.2 0 -252.4L0 0Z" fill="#435c80"></path><path d="M-126.2 0C-118.6 -13.9 -111.1 -27.9 -106.2 -44C-101.4 -60.1 -99.3 -78.5 -89.2 -89.2C-79.1 -100 -61 -103.2 -44.8 -108.1C-28.6 -113 -14.3 -119.6 0 -126.2L0 0Z" fill="#496791"></path></g><g transform="translate(0, 0)"><path d="M378.6 0C378.1 54.7 377.6 109.3 349.8 144.9C321.9 180.4 266.7 196.8 230.5 230.5C194.3 264.2 177.2 315.2 142 342.8C106.7 370.3 53.4 374.5 0 378.6L0 0Z" fill="#374860"></path><path d="M252.4 0C252.1 36.4 251.7 72.9 233.2 96.6C214.6 120.3 177.8 131.2 153.7 153.7C129.6 176.1 118.1 210.1 94.7 228.5C71.2 246.9 35.6 249.6 0 252.4L0 0Z" fill="#435c80"></path><path d="M126.2 0C126 18.2 125.9 36.4 116.6 48.3C107.3 60.1 88.9 65.6 76.8 76.8C64.8 88.1 59.1 105.1 47.3 114.3C35.6 123.4 17.8 124.8 0 126.2L0 0Z" fill="#496791"></path></g></svg>