<svg id="visual" viewBox="0 0 900 600" width="900" height="600" xmlns="http://www.w3.org/2000/svg" xmlns:xlink="http://www.w3.org/1999/xlink" version="1.1"><rect x="0" y="0" width="900" height="600" fill="#001220"></rect><defs><linearGradient id="grad1_0" x1="33.3%" y1="100%" x2="100%" y2="0%"><stop offset="20%" stop-color="#fbae3c" stop-opacity="1"></stop><stop offset="80%" stop-color="#fbae3c" stop-opacity="1"></stop></linearGradient></defs><defs><linearGradient id="grad1_1" x1="33.3%" y1="100%" x2="100%" y2="0%"><stop offset="20%" stop-color="#fbae3c" stop-opacity="1"></stop><stop offset="80%" stop-color="#001220" stop-opacity="1"></stop></linearGradient></defs><defs><linearGradient id="grad2_0" x1="0%" y1="100%" x2="66.7%" y2="0%"><stop offset="20%" stop-color="#fbae3c" stop-opacity="1"></stop><stop offset="80%" stop-color="#fbae3c" stop-opacity="1"></stop></linearGradient></defs><defs><linearGradient id="grad2_1" x1="0%" y1="100%" x2="66.7%" y2="0%"><stop offset="20%" stop-color="#001220" stop-opacity="1"></stop><stop offset="80%" stop-color="#fbae3c" stop-opacity="1"></stop></linearGradient></defs><g transform="translate(900, 600)"><path d="M-324.5 0C-305.6 -28.6 -286.6 -57.2 -279.6 -90.9C-272.6 -124.5 -277.6 -163.4 -262.5 -190.7C-247.5 -218.1 -212.5 -234 -182.2 -250.8C-151.9 -267.6 -126.3 -285.2 -96.7 -297.7C-67.1 -310.1 -33.6 -317.3 0 -324.5L0 0Z" fill="#96446e"></path><path d="M-162.2 0C-152.8 -14.3 -143.3 -28.6 -139.8 -45.4C-136.3 -62.3 -138.8 -81.7 -131.3 -95.4C-123.8 -109.1 -106.3 -117 -91.1 -125.4C-76 -133.8 -63.2 -142.6 -48.4 -148.8C-33.6 -155.1 -16.8 -158.7 0 -162.2L0 0Z" fill="#fbae3c"></path></g><g transform="translate(0, 0)"><path d="M324.5 0C302.9 29.6 281.3 59.3 262.5 85.3C243.7 111.3 227.7 133.7 210.3 152.8C193 171.9 174.2 187.7 157.5 216.8C140.8 245.9 126.2 288.4 100.3 308.6C74.4 328.8 37.2 326.6 0 324.5L0 0Z" fill="#96446e"></path><path d="M162.2 0C151.4 14.8 140.6 29.6 131.2 42.6C121.8 55.7 113.9 66.9 105.2 76.4C96.5 86 87.1 93.8 78.8 108.4C70.4 123 63.1 144.2 50.1 154.3C37.2 164.4 18.6 163.3 0 162.2L0 0Z" fill="#fbae3c"></path></g></svg>