<svg id="visual" viewBox="0 0 900 600" width="900" height="600" xmlns="http://www.w3.org/2000/svg" xmlns:xlink="http://www.w3.org/1999/xlink" version="1.1"><rect x="0" y="0" width="900" height="600" fill="#001220"></rect><defs><linearGradient id="grad1_0" x1="33.3%" y1="100%" x2="100%" y2="0%"><stop offset="20%" stop-color="#fbae3c" stop-opacity="1"></stop><stop offset="80%" stop-color="#fbae3c" stop-opacity="1"></stop></linearGradient></defs><defs><linearGradient id="grad1_1" x1="33.3%" y1="100%" x2="100%" y2="0%"><stop offset="20%" stop-color="#fbae3c" stop-opacity="1"></stop><stop offset="80%" stop-color="#001220" stop-opacity="1"></stop></linearGradient></defs><defs><linearGradient id="grad2_0" x1="0%" y1="100%" x2="66.7%" y2="0%"><stop offset="20%" stop-color="#fbae3c" stop-opacity="1"></stop><stop offset="80%" stop-color="#fbae3c" stop-opacity="1"></stop></linearGradient></defs><defs><linearGradient id="grad2_1" x1="0%" y1="100%" x2="66.7%" y2="0%"><stop offset="20%" stop-color="#001220" stop-opacity="1"></stop><stop offset="80%" stop-color="#fbae3c" stop-opacity="1"></stop></linearGradient></defs><g transform="translate(900, 600)"><path d="M-405.6 0C-386.1 -26.7 -366.7 -53.5 -357.8 -81.7C-348.9 -109.9 -350.7 -139.6 -337 -162.3C-323.2 -185 -294 -200.7 -272.9 -217.6C-251.7 -234.5 -238.7 -252.4 -226.3 -283.8C-214 -315.2 -202.3 -360 -176 -365.5C-149.7 -371 -108.8 -337.2 -77 -337.3C-45.2 -337.5 -22.6 -371.5 0 -405.6L0 0Z" fill="#96446e"></path><path d="M-202.8 0C-193.1 -13.4 -183.3 -26.7 -178.9 -40.8C-174.5 -54.9 -175.3 -69.8 -168.5 -81.1C-161.6 -92.5 -147 -100.4 -136.4 -108.8C-125.9 -117.2 -119.3 -126.2 -113.2 -141.9C-107 -157.6 -101.1 -180 -88 -182.7C-74.8 -185.5 -54.4 -168.6 -38.5 -168.7C-22.6 -168.7 -11.3 -185.8 0 -202.8L0 0Z" fill="#fbae3c"></path></g><g transform="translate(0, 0)"><path d="M405.6 0C388 29 370.4 57.9 351 80.1C331.6 102.3 310.5 117.7 309.9 149.3C309.4 180.8 329.4 228.6 317.1 252.9C304.8 277.3 260.2 278.2 227.6 285.4C194.9 292.5 174.3 305.9 151.4 314.4C128.6 323 103.5 326.8 77.9 341.2C52.3 355.6 26.1 380.6 0 405.6L0 0Z" fill="#96446e"></path><path d="M202.8 0C194 14.5 185.2 29 175.5 40.1C165.8 51.1 155.2 58.8 155 74.6C154.7 90.4 164.7 114.3 158.6 126.5C152.4 138.6 130.1 139.1 113.8 142.7C97.5 146.3 87.1 152.9 75.7 157.2C64.3 161.5 51.7 163.4 38.9 170.6C26.1 177.8 13.1 190.3 0 202.8L0 0Z" fill="#fbae3c"></path></g></svg>